<?xml version="1.0" standalone="no"?>
<!DOCTYPE svg PUBLIC "-//W3C//DTD SVG 20010904//EN"
 "http://www.w3.org/TR/2001/REC-SVG-20010904/DTD/svg10.dtd">
<svg version="1.0" xmlns="http://www.w3.org/2000/svg"
 width="1276.000000pt" height="246.000000pt" viewBox="0 0 1276.000000 246.000000"
 preserveAspectRatio="xMidYMid meet">

<g transform="translate(0.000000,246.000000) scale(0.100000,-0.100000)"
fill="#000000" stroke="none">
<path d="M784 1822 c-35 -24 -15 -76 27 -70 16 2 25 10 27 26 6 38 -26 64 -54
44z"/>
<path d="M2630 1816 c-6 -8 -10 -25 -8 -38 4 -30 46 -38 65 -12 17 23 16 29
-3 48 -19 20 -38 20 -54 2z"/>
<path d="M2296 1678 c-29 -40 -14 -92 30 -108 53 -21 110 42 83 92 -16 31 -28
38 -66 38 -22 0 -37 -7 -47 -22z"/>
<path d="M462 1653 c-12 -23 -5 -40 19 -53 27 -15 64 22 49 50 -13 25 -56 26
-68 3z"/>
<path d="M1082 1658 c-18 -18 -15 -35 10 -52 30 -21 60 -4 56 32 -2 20 -9 28
-28 30 -14 2 -31 -3 -38 -10z"/>
<path d="M1701 1656 c-17 -20 -6 -52 20 -59 25 -7 51 19 47 47 -4 26 -49 34
-67 12z"/>
<path d="M2937 1663 c-14 -14 -6 -53 13 -63 28 -15 65 22 50 50 -10 19 -49 27
-63 13z"/>
<path d="M760 1572 c-86 -43 -77 -162 14 -192 58 -19 121 17 132 77 16 88 -68
154 -146 115z"/>
<path d="M2015 1583 c-31 -7 -72 -51 -79 -85 -12 -59 41 -121 104 -121 93 0
139 113 72 176 -29 26 -64 37 -97 30z"/>
<path d="M2622 1579 c-41 -16 -72 -59 -72 -99 0 -34 31 -78 67 -95 65 -31 143
20 143 94 0 46 -23 79 -66 97 -38 16 -41 16 -72 3z"/>
<path d="M1375 1525 c-14 -13 -25 -33 -25 -45 0 -29 44 -70 75 -70 58 0 87 79
43 120 -29 27 -64 25 -93 -5z"/>
<path d="M5363 1471 c-76 -13 -73 -1 -73 -302 l0 -269 25 -16 c18 -12 52 -16
142 -17 100 -1 125 2 164 20 56 25 94 74 104 130 9 59 -9 106 -56 147 -32 27
-37 36 -26 43 8 4 25 25 37 46 17 29 21 48 17 82 -6 60 -30 93 -85 117 -50 22
-177 32 -249 19z m193 -105 c30 -20 40 -58 24 -95 -15 -38 -48 -51 -125 -51
l-65 0 0 79 c0 67 3 80 18 85 31 9 123 -2 148 -18z m-1 -239 c31 -10 42 -20
53 -48 12 -31 11 -41 -1 -71 -13 -31 -22 -37 -66 -48 -30 -7 -71 -9 -101 -5
l-50 7 0 89 0 89 63 -1 c34 0 80 -6 102 -12z"/>
<path d="M6463 1471 c-76 -13 -73 -1 -73 -306 0 -297 0 -300 57 -293 39 4 53
39 53 129 l0 76 83 5 c93 5 149 29 189 82 20 27 23 42 23 116 0 101 -18 135
-90 170 -50 24 -168 34 -242 21z m198 -120 c21 -21 29 -39 29 -65 0 -77 -32
-106 -127 -114 l-63 -5 0 107 0 106 66 0 c59 0 68 -3 95 -29z"/>
<path d="M7066 1465 c-59 -21 -108 -66 -141 -130 -28 -54 -30 -66 -30 -164 0
-117 19 -178 73 -234 53 -56 97 -72 202 -72 83 0 101 3 140 25 65 37 84 86 41
109 -11 6 -34 1 -71 -15 -157 -67 -272 11 -274 186 -1 91 27 158 78 190 39 24
120 27 187 7 57 -17 77 -12 86 20 8 32 -28 67 -85 82 -52 15 -159 13 -206 -4z"/>
<path d="M12102 1468 c-52 -18 -126 -91 -153 -150 -19 -43 -23 -70 -24 -148 0
-84 3 -102 28 -152 65 -133 203 -188 356 -142 72 21 141 90 166 165 24 71 25
188 2 255 -22 63 -76 128 -131 156 -48 25 -190 34 -244 16z m207 -115 c51 -39
66 -79 66 -178 0 -147 -44 -206 -158 -213 -52 -3 -67 0 -97 20 -108 72 -113
294 -9 371 53 39 145 39 198 0z"/>
<path d="M3406 1454 c-9 -8 -16 -23 -16 -33 0 -9 47 -99 105 -201 58 -101 105
-190 105 -199 0 -9 -8 -25 -16 -36 -12 -16 -27 -20 -82 -20 l-67 0 0 -35 c0
-30 5 -38 35 -53 24 -13 50 -17 83 -14 59 5 96 37 137 117 41 82 190 435 190
451 0 38 -55 52 -82 22 -9 -10 -42 -81 -74 -158 -31 -77 -60 -143 -64 -148 -4
-4 -44 61 -91 144 -46 84 -90 158 -97 166 -18 18 -47 16 -66 -3z"/>
<path d="M3990 1451 c-6 -12 -10 -121 -10 -284 0 -243 1 -265 18 -280 23 -21
56 -22 76 -1 13 12 16 39 16 130 l0 114 135 0 135 0 0 -108 c0 -119 12 -152
55 -152 53 0 55 9 55 304 0 290 -1 296 -49 296 -51 0 -56 -11 -59 -130 l-4
-110 -134 0 -134 0 0 101 c0 119 -8 139 -55 139 -24 0 -38 -6 -45 -19z"/>
<path d="M4646 1448 c-14 -19 -16 -63 -16 -278 0 -278 4 -300 55 -300 28 0 44
19 210 248 61 83 113 152 117 152 4 0 7 -84 8 -187 0 -119 4 -191 11 -200 14
-16 61 -17 77 -1 9 9 12 87 12 289 0 301 0 304 -56 297 -23 -2 -50 -34 -163
-190 -75 -103 -142 -193 -148 -200 -10 -10 -13 26 -13 178 0 134 -4 194 -12
202 -20 20 -65 14 -82 -10z"/>
<path d="M5876 1448 c-14 -19 -16 -63 -16 -278 0 -215 2 -259 16 -278 15 -21
21 -22 193 -22 187 0 201 3 201 46 0 47 -21 54 -166 54 l-134 0 0 80 0 80 109
0 c102 0 111 2 125 22 20 29 20 34 -4 58 -17 17 -33 20 -125 20 l-106 0 3 73
3 72 129 3 c135 3 156 9 156 46 0 43 -15 46 -196 46 -167 0 -173 -1 -188 -22z"/>
<path d="M7510 1450 c-7 -12 -9 -115 -8 -291 3 -236 5 -273 19 -282 38 -24 63
0 209 200 l145 197 5 -192 c5 -205 7 -211 57 -212 51 0 53 11 53 296 0 164 -4
273 -10 285 -16 29 -61 25 -92 -8 -14 -16 -81 -106 -149 -201 l-124 -173 -5
191 c-5 206 -6 210 -62 210 -17 0 -31 -7 -38 -20z"/>
<path d="M8102 1458 c-7 -7 -12 -21 -12 -33 0 -37 19 -45 112 -45 l88 0 0
-233 c0 -194 3 -236 16 -255 17 -25 65 -30 83 -9 7 9 12 97 13 253 l3 239 93
3 c86 3 94 4 103 26 8 17 8 29 0 45 -11 21 -17 21 -249 21 -172 0 -241 -3
-250 -12z"/>
<path d="M8722 1458 c-9 -9 -12 -86 -12 -284 0 -234 2 -275 16 -288 23 -24
355 -24 379 0 9 9 15 26 13 37 -5 36 -44 47 -175 47 l-123 0 0 80 0 80 104 0
c110 0 136 9 136 49 0 40 -31 51 -138 51 l-102 0 0 75 0 75 133 0 c140 0 157
5 157 45 0 42 -15 45 -200 45 -124 0 -180 -4 -188 -12z"/>
<path d="M9169 1449 c-8 -16 -8 -28 0 -45 9 -22 17 -23 103 -26 l93 -3 3 -239
c1 -156 6 -244 13 -253 6 -7 24 -13 39 -13 15 0 33 6 39 13 7 9 12 97 13 253
l3 239 95 5 c92 5 95 6 104 32 20 56 9 58 -255 58 -233 0 -239 0 -250 -21z"/>
<path d="M10036 1448 c-14 -19 -16 -63 -16 -278 0 -278 4 -300 55 -300 28 0
44 19 210 248 61 83 114 152 118 152 4 0 7 -84 7 -186 -2 -200 2 -214 49 -214
50 0 51 4 51 307 l0 283 -24 6 c-14 3 -33 4 -42 2 -10 -2 -56 -55 -101 -118
-46 -63 -111 -153 -145 -200 l-63 -85 -3 189 c-1 119 -7 194 -13 203 -18 21
-66 16 -83 -9z"/>
<path d="M10626 1448 c-13 -19 -14 -25 -2 -43 12 -17 26 -20 105 -23 l91 -3 0
-239 c0 -204 2 -241 16 -254 21 -21 57 -20 77 2 15 16 17 49 17 255 l0 237 88
0 c93 0 112 8 112 45 0 43 -12 45 -256 45 -229 0 -233 0 -248 -22z"/>
<path d="M11242 1458 c-9 -9 -12 -87 -12 -288 0 -289 2 -300 45 -300 48 1 50
8 53 206 l3 186 56 -89 c106 -168 121 -171 209 -31 89 145 84 149 84 -64 0
-203 3 -212 57 -206 48 5 53 29 53 295 0 240 -6 288 -35 299 -41 16 -62 -5
-151 -151 -49 -79 -92 -145 -95 -145 -4 0 -42 57 -85 126 -44 69 -87 136 -97
150 -20 26 -64 33 -85 12z"/>
<path d="M424 1396 c-47 -47 -47 -95 0 -142 26 -26 42 -34 71 -34 52 0 105 53
105 105 0 52 -53 105 -105 105 -29 0 -45 -8 -71 -34z"/>
<path d="M1065 1418 c-33 -18 -55 -51 -55 -86 0 -98 100 -147 172 -83 28 25
33 36 33 76 0 40 -5 51 -33 76 -34 31 -80 38 -117 17z"/>
<path d="M1683 1420 c-47 -19 -71 -98 -44 -149 13 -24 61 -51 91 -51 37 0 81
30 96 67 37 88 -51 170 -143 133z"/>
<path d="M2280 1403 c-42 -39 -49 -87 -18 -133 58 -85 188 -51 188 50 0 52
-13 76 -50 95 -45 23 -85 19 -120 -12z"/>
<path d="M2934 1346 c-11 -29 1 -51 28 -54 33 -4 57 30 37 54 -15 18 -58 18
-65 0z"/>
<path d="M764 1266 c-60 -26 -80 -86 -49 -146 19 -37 43 -50 92 -50 113 1 141
152 36 196 -39 17 -40 17 -79 0z"/>
<path d="M1384 1270 c-36 -14 -64 -59 -64 -102 0 -88 112 -134 172 -70 36 37
43 71 24 116 -11 26 -26 41 -50 51 -40 17 -52 17 -82 5z"/>
<path d="M1994 1266 c-38 -17 -68 -75 -59 -116 15 -66 108 -103 164 -64 67 47
55 157 -21 183 -39 14 -46 13 -84 -3z"/>
<path d="M2610 1220 c-60 -60 24 -157 88 -102 35 29 38 67 8 96 -30 31 -69 33
-96 6z"/>
<path d="M154 1184 c-8 -32 15 -59 44 -50 43 14 33 76 -13 76 -18 0 -26 -7
-31 -26z"/>
<path d="M1039 1091 c-72 -73 -7 -196 94 -177 51 10 82 48 82 103 0 38 -5 49
-33 74 -45 41 -102 41 -143 0z"/>
<path d="M1665 1098 c-54 -48 -49 -131 9 -167 42 -26 72 -26 112 -2 42 25 61
80 44 122 -28 68 -113 92 -165 47z"/>
<path d="M456 1069 c-52 -41 -25 -119 41 -119 63 0 88 75 39 117 -33 28 -46
29 -80 2z"/>
<path d="M2306 1069 c-49 -39 -22 -119 42 -119 33 0 45 8 61 37 16 32 3 71
-30 88 -36 19 -41 19 -73 -6z"/>
<path d="M1371 904 c-27 -35 -26 -59 4 -89 30 -30 54 -31 89 -4 50 39 22 119
-43 119 -20 0 -36 -9 -50 -26z"/>
<path d="M1990 910 c-11 -11 -20 -31 -20 -45 0 -31 41 -75 70 -75 28 0 70 43
70 73 0 31 -39 67 -73 67 -15 0 -36 -9 -47 -20z"/>
<path d="M157 893 c-12 -12 -7 -50 8 -63 17 -14 51 -5 59 16 13 35 -41 73 -67
47z"/>
<path d="M770 881 c-8 -17 -7 -24 10 -41 28 -28 63 -11 58 28 -4 35 -51 44
-68 13z"/>
<path d="M2633 893 c-18 -7 -16 -48 2 -63 17 -14 51 -5 59 16 14 35 -23 63
-61 47z"/>
<path d="M1072 763 c-50 -42 -24 -123 39 -123 65 0 93 80 43 119 -33 26 -55
26 -82 4z"/>
<path d="M1685 755 c-30 -29 -32 -64 -5 -93 40 -43 120 -13 120 44 0 30 -41
74 -70 74 -11 0 -32 -11 -45 -25z"/>
<path d="M2320 735 c-19 -23 -4 -65 23 -65 43 0 60 35 31 64 -19 20 -38 20
-54 1z"/>
<path d="M1396 587 c-22 -16 -18 -55 7 -71 39 -24 79 44 41 71 -10 7 -21 13
-24 13 -3 0 -14 -6 -24 -13z"/>
</g>
</svg>
