<?xml version="1.0" standalone="no"?>
<!DOCTYPE svg PUBLIC "-//W3C//DTD SVG 20010904//EN"
 "http://www.w3.org/TR/2001/REC-SVG-20010904/DTD/svg10.dtd">
<svg version="1.0" xmlns="http://www.w3.org/2000/svg"
 width="1040.000000pt" height="410.000000pt" viewBox="0 0 1040.000000 410.000000"
 preserveAspectRatio="xMidYMid meet">

<g transform="translate(0.000000,410.000000) scale(0.100000,-0.100000)"
fill="#000000" stroke="none">
<path d="M2403 3315 c-165 -84 -192 -298 -54 -417 137 -117 358 -58 416 111
30 88 9 184 -55 249 -56 58 -93 75 -180 79 -66 4 -81 1 -127 -22z"/>
<path d="M8710 2661 c-314 -69 -568 -267 -680 -530 -58 -135 -74 -227 -74
-416 -1 -144 3 -184 22 -259 85 -337 325 -575 680 -674 90 -25 111 -27 287
-27 176 0 197 2 287 27 239 67 432 200 554 384 63 95 96 171 126 292 18 72 22
116 22 257 1 184 -15 277 -68 404 -110 259 -342 451 -644 533 -112 30 -392 35
-512 9z m368 -456 c168 -40 287 -155 340 -329 22 -73 21 -244 -2 -321 -27 -90
-63 -153 -120 -211 -87 -87 -209 -134 -346 -134 -301 0 -494 197 -494 505 0
254 131 436 352 489 76 19 192 19 270 1z"/>
<path d="M460 1715 l0 -955 526 2 527 3 258 655 c142 360 309 784 371 941
l113 287 3 -944 2 -944 258 3 257 2 0 950 0 950 -510 0 -509 0 -308 -750
c-169 -412 -343 -835 -385 -939 l-78 -190 -3 942 -2 942 -260 0 -260 0 0 -955z"/>
<path d="M5030 1715 l0 -955 258 2 257 3 5 764 5 765 189 -480 c104 -263 239
-607 301 -764 l112 -285 268 0 269 0 300 762 301 763 5 -763 5 -762 258 -2
257 -3 0 955 0 955 -442 -2 -442 -3 -251 -612 c-138 -337 -254 -615 -257 -618
-3 -4 -20 29 -38 72 -18 43 -132 321 -254 618 l-221 540 -443 3 -442 3 0 -956z"/>
<path d="M2940 2430 l0 -230 350 0 350 0 2 -717 3 -718 255 0 255 0 3 718 2
717 355 0 355 0 0 230 0 230 -965 0 -965 0 0 -230z"/>
</g>
</svg>
