<?xml version="1.0" standalone="no"?>
<!DOCTYPE svg PUBLIC "-//W3C//DTD SVG 20010904//EN"
 "http://www.w3.org/TR/2001/REC-SVG-20010904/DTD/svg10.dtd">
<svg version="1.0" xmlns="http://www.w3.org/2000/svg"
 width="734.000000pt" height="346.000000pt" viewBox="0 0 734.000000 346.000000"
 preserveAspectRatio="xMidYMid meet">

<g transform="translate(0.000000,346.000000) scale(0.100000,-0.100000)"
fill="#000000" stroke="none">
<path d="M2576 3134 c-22 -21 -20 -47 4 -69 44 -40 107 25 69 71 -15 19 -54
18 -73 -2z"/>
<path d="M4890 3129 c-25 -45 12 -89 60 -74 48 15 31 95 -20 95 -19 0 -33 -7
-40 -21z"/>
<path d="M4511 2989 c-35 -14 -50 -39 -51 -82 0 -47 38 -87 82 -87 40 0 88 48
88 89 0 57 -65 101 -119 80z"/>
<path d="M2198 2949 c-21 -12 -24 -59 -6 -77 19 -19 55 -14 72 10 20 29 20 34
-4 58 -22 22 -37 24 -62 9z"/>
<path d="M2965 2944 c-19 -20 -16 -63 6 -77 26 -16 68 0 75 29 12 48 -46 83
-81 48z"/>
<path d="M3735 2940 c-24 -26 -10 -73 22 -78 54 -8 84 46 45 81 -25 22 -45 21
-67 -3z"/>
<path d="M5286 2947 c-22 -16 -18 -65 5 -80 24 -15 66 -1 72 25 8 28 -17 68
-41 68 -10 0 -26 -6 -36 -13z"/>
<path d="M2554 2832 c-71 -34 -94 -126 -49 -195 9 -14 37 -34 61 -43 37 -14
51 -15 84 -5 52 15 91 66 92 119 1 105 -93 168 -188 124z"/>
<path d="M4105 2836 c-89 -39 -108 -158 -35 -220 44 -36 89 -42 142 -18 105
46 102 193 -5 237 -45 18 -63 18 -102 1z"/>
<path d="M4873 2835 c-67 -29 -94 -126 -53 -193 21 -34 71 -62 111 -62 36 0
90 32 110 64 40 66 14 157 -54 189 -42 20 -71 21 -114 2z"/>
<path d="M3325 2775 c-54 -53 -16 -145 60 -145 49 0 85 36 85 85 0 76 -92 114
-145 60z"/>
<path d="M2174 2641 c-74 -33 -100 -103 -65 -175 49 -101 188 -101 236 0 52
110 -60 225 -171 175z"/>
<path d="M2928 2634 c-58 -31 -78 -136 -37 -188 86 -110 252 -45 236 93 -4 36
-13 52 -41 78 -30 28 -43 33 -83 33 -27 -1 -60 -7 -75 -16z"/>
<path d="M3684 2617 c-68 -62 -54 -171 27 -213 52 -26 116 -14 156 30 28 30
33 43 33 83 -1 85 -48 133 -133 133 -40 0 -53 -5 -83 -33z"/>
<path d="M4480 2637 c-34 -17 -70 -74 -70 -111 0 -69 66 -136 133 -136 105 0
167 119 109 208 -31 48 -116 67 -172 39z"/>
<path d="M5277 2549 c-18 -25 -11 -56 15 -70 45 -24 91 24 63 67 -19 30 -59
32 -78 3z"/>
<path d="M2543 2441 c-45 -29 -66 -74 -60 -130 10 -94 119 -142 202 -91 69 43
77 143 17 203 -40 40 -112 48 -159 18z"/>
<path d="M3316 2440 c-34 -21 -65 -73 -66 -108 -2 -106 131 -172 216 -107 98
75 42 235 -82 235 -22 0 -52 -9 -68 -20z"/>
<path d="M4093 2440 c-64 -38 -83 -99 -54 -166 44 -99 186 -101 236 -4 60 115
-72 238 -182 170z"/>
<path d="M4893 2410 c-12 -5 -29 -23 -38 -40 -44 -84 54 -168 128 -110 53 42
39 127 -24 149 -37 13 -37 13 -66 1z"/>
<path d="M1806 2364 c-32 -32 -11 -84 34 -84 29 0 50 22 50 54 0 20 -28 46
-50 46 -10 0 -26 -7 -34 -16z"/>
<path d="M2943 2255 c-104 -45 -94 -209 15 -244 38 -12 48 -11 85 3 53 21 79
56 84 115 5 57 -19 100 -70 124 -42 20 -71 21 -114 2z"/>
<path d="M3711 2253 c-64 -32 -90 -117 -57 -182 46 -87 186 -87 232 0 34 66 4
158 -61 185 -44 18 -72 17 -114 -3z"/>
<path d="M2165 2195 c-34 -33 -34 -84 1 -119 57 -56 144 -18 144 63 0 31 -6
44 -26 60 -37 29 -89 27 -119 -4z"/>
<path d="M4486 2199 c-20 -16 -26 -29 -26 -60 0 -82 92 -121 145 -63 28 31 31
62 10 103 -24 47 -83 56 -129 20z"/>
<path d="M3343 2020 c-65 -26 -55 -133 15 -158 35 -12 85 6 101 37 42 77 -32
155 -116 121z"/>
<path d="M4099 2001 c-48 -48 -36 -111 26 -137 59 -24 115 14 115 78 0 82 -83
116 -141 59z"/>
<path d="M2593 1990 c-26 -11 -38 -43 -24 -68 14 -26 45 -33 71 -15 43 30 3
102 -47 83z"/>
<path d="M1802 1978 c-28 -28 -2 -88 38 -88 40 0 66 60 38 88 -7 7 -24 12 -38
12 -14 0 -31 -5 -38 -12z"/>
<path d="M4892 1978 c-18 -18 -15 -52 6 -71 25 -22 45 -21 67 3 27 30 10 74
-30 78 -17 2 -36 -3 -43 -10z"/>
<path d="M2964 1830 c-55 -22 -69 -91 -30 -137 45 -52 136 -31 149 34 7 39
-12 82 -44 98 -31 17 -44 18 -75 5z"/>
<path d="M3728 1825 c-36 -20 -54 -75 -36 -112 28 -58 108 -67 148 -16 57 73
-30 174 -112 128z"/>
<path d="M4504 1775 c-15 -23 -15 -27 0 -50 30 -45 86 -28 86 27 0 49 -59 65
-86 23z"/>
<path d="M3347 1592 c-24 -26 -21 -59 6 -76 55 -37 112 41 59 82 -22 17 -46
15 -65 -6z"/>
<path d="M2938 931 c-95 -31 -148 -109 -148 -220 0 -88 15 -135 56 -180 57
-64 167 -79 257 -36 41 19 60 60 36 76 -15 10 -20 9 -89 -16 -113 -41 -200 57
-172 193 16 78 53 112 121 112 26 0 63 -5 80 -11 27 -10 36 -9 48 4 9 8 13 22
10 31 -15 38 -137 67 -199 47z"/>
<path d="M6712 929 c-60 -14 -116 -72 -136 -140 -20 -66 -20 -102 -1 -167 31
-103 113 -159 218 -150 121 10 189 85 195 214 2 40 -1 89 -8 109 -14 43 -62
100 -100 120 -37 19 -117 26 -168 14z m152 -99 c43 -40 59 -140 32 -204 -30
-71 -100 -101 -169 -72 -87 36 -106 211 -29 279 44 40 123 38 166 -3z"/>
<path d="M172 918 c-7 -7 -12 -18 -12 -25 0 -8 37 -78 81 -155 78 -135 81
-143 67 -168 -12 -21 -21 -25 -63 -25 -46 0 -50 -2 -50 -25 0 -48 90 -67 139
-29 31 24 60 80 141 271 48 114 56 140 45 153 -31 37 -55 11 -105 -110 -59
-144 -48 -143 -122 -9 -75 138 -90 153 -121 122z"/>
<path d="M622 922 c-16 -11 -27 -277 -15 -372 7 -61 10 -65 35 -68 38 -5 50
25 46 114 l-3 74 103 0 102 0 0 -84 c0 -91 10 -110 52 -104 l23 3 0 214 c0
193 -2 215 -17 225 -13 8 -23 8 -35 0 -15 -9 -19 -28 -21 -98 l-3 -86 -99 0
-100 0 0 76 c0 101 -22 135 -68 106z"/>
<path d="M1101 911 c-14 -26 -15 -385 -1 -412 6 -10 19 -19 29 -19 23 0 51 32
161 183 l85 117 5 -142 c4 -120 8 -143 22 -152 13 -8 23 -8 35 0 16 10 18 34
21 222 l2 212 -24 6 c-14 3 -29 3 -35 0 -5 -4 -56 -71 -111 -149 -56 -78 -106
-143 -111 -145 -5 -2 -10 63 -11 145 l-3 148 -27 3 c-18 2 -30 -3 -37 -17z"/>
<path d="M1600 912 c-21 -17 -21 -22 -18 -214 2 -136 7 -201 15 -209 19 -19
200 -16 245 3 45 20 68 62 68 123 0 38 -5 52 -30 77 l-30 30 20 25 c25 32 27
99 4 132 -26 36 -75 51 -168 51 -65 0 -89 -4 -106 -18z m159 -52 c39 -11 51
-24 51 -57 0 -41 -34 -63 -95 -63 l-55 0 0 59 c0 48 3 60 18 64 29 8 46 7 81
-3z m30 -191 c34 -12 47 -42 37 -84 -8 -32 -41 -45 -112 -45 l-54 0 0 70 0 70
49 0 c26 0 62 -5 80 -11z"/>
<path d="M2032 918 c-14 -14 -17 -404 -4 -426 7 -9 43 -12 148 -10 138 3 139
3 142 27 2 13 -2 28 -10 32 -7 5 -57 9 -110 9 l-98 0 0 63 0 62 69 -3 c76 -4
111 8 111 38 0 30 -35 42 -111 38 l-69 -3 0 57 0 57 101 3 c82 2 104 6 112 20
8 12 7 21 -2 32 -11 13 -37 16 -140 16 -85 0 -131 -4 -139 -12z"/>
<path d="M2432 914 c-21 -15 -22 -20 -22 -213 0 -208 3 -221 46 -221 28 0 34
17 34 93 l0 62 58 1 c70 1 135 32 157 74 22 42 19 118 -5 158 -11 18 -36 40
-55 48 -48 20 -184 19 -213 -2z m187 -80 c26 -33 27 -64 1 -97 -21 -26 -77
-43 -110 -32 -18 6 -20 16 -20 81 l0 74 54 0 c47 0 57 -4 75 -26z"/>
<path d="M3250 911 c-15 -29 -13 -404 2 -419 33 -33 54 -14 184 166 l89 123 3
-137 c1 -84 7 -143 14 -151 6 -8 23 -13 37 -11 l26 3 3 200 c3 236 1 247 -36
243 -26 -3 -69 -56 -199 -245 -19 -29 -39 -51 -42 -48 -4 2 -8 66 -10 141 -1
76 -4 141 -7 146 -10 16 -53 8 -64 -11z"/>
<path d="M3702 921 c-8 -4 -12 -19 -10 -32 3 -22 8 -24 76 -27 l72 -3 0 -177
c0 -97 4 -183 9 -190 5 -8 21 -12 37 -10 l29 3 3 188 2 187 70 0 c55 0 71 4
79 17 6 11 6 24 0 35 -9 16 -27 18 -182 18 -95 0 -178 -4 -185 -9z"/>
<path d="M4160 911 c-15 -29 -13 -404 2 -419 8 -8 55 -12 144 -12 108 0 134 3
145 16 9 11 10 20 2 32 -8 14 -30 18 -117 20 l-106 3 0 58 0 59 85 3 c80 4
105 13 105 39 0 26 -25 35 -105 39 l-85 3 0 54 0 53 108 3 c104 3 107 4 110
27 2 13 -2 28 -10 32 -7 5 -70 9 -140 9 -116 0 -128 -2 -138 -19z"/>
<path d="M4499 914 c-25 -30 1 -49 77 -54 l69 -5 5 -185 5 -185 24 -3 c45 -7
51 17 51 204 l0 173 66 3 c74 3 100 22 75 52 -20 24 -352 24 -372 0z"/>
<path d="M5151 916 c-8 -9 -11 -77 -9 -222 l3 -209 27 -3 c23 -3 35 9 99 95
129 175 143 193 151 193 4 0 9 -64 10 -142 3 -141 3 -143 26 -146 49 -7 52 6
52 215 0 199 -6 233 -38 233 -24 0 -53 -32 -158 -180 l-89 -125 -3 139 c-1 82
-7 145 -14 153 -14 17 -43 17 -57 -1z"/>
<path d="M5590 909 c-19 -34 3 -48 78 -51 l67 -3 5 -185 c5 -184 5 -185 28
-188 48 -7 52 7 52 199 l0 178 66 3 c74 3 100 22 75 52 -11 13 -41 16 -187 16
-165 0 -174 -1 -184 -21z"/>
<path d="M6052 918 c-13 -13 -18 -391 -6 -422 7 -19 47 -21 62 -3 7 8 13 68
14 143 l3 129 49 -77 c66 -106 79 -106 149 4 l52 82 5 -139 c4 -117 8 -140 23
-149 12 -8 22 -8 35 0 15 10 17 33 20 214 3 214 -1 234 -42 228 -14 -2 -42
-38 -88 -112 -37 -60 -70 -111 -72 -114 -3 -2 -27 30 -53 73 -97 156 -118 176
-151 143z"/>
</g>
</svg>
